<svg width="33" height="36" viewBox="0 0 33 36" fill="none" xmlns="http://www.w3.org/2000/svg">
<path d="M2.7351 0.408203H30.4524C31.3919 0.408203 32.2383 1.34959 32.2383 2.39464V33.2246C32.2383 34.2696 31.3919 35.211 30.4524 35.211H2.7351C1.79556 35.211 0.949219 34.2696 0.949219 33.2246V2.39464C0.949219 1.34959 1.79556 0.408203 2.7351 0.408203ZM23.1691 19.9499H27.491L27.6789 15.3516H23.1691V11.9556C23.1691 10.6497 23.4036 9.91735 24.9068 9.91735H27.5376L27.6323 5.6318C27.6323 5.6318 26.4582 5.42279 24.767 5.42279C20.633 5.42279 18.8006 8.2971 18.8006 11.3804V15.3516H15.7474V19.9499H18.8006V32.6995H23.1691V19.9499Z" fill="#B1B1B1"/>
</svg>
