<svg width="33" height="32" viewBox="0 0 33 32" fill="none" xmlns="http://www.w3.org/2000/svg">
<g clip-path="url(#clip0_25_54)">
<path fill-rule="evenodd" clip-rule="evenodd" d="M9.58174 2.92382C6.35778 2.92382 3.71191 5.5697 3.71191 8.79365V22.4736C3.71191 25.6975 6.35778 28.3434 9.58174 28.3434H23.2617C26.4856 28.3434 29.1315 25.6975 29.1315 22.4736V8.79365C29.1315 5.5697 26.4856 2.92382 23.2617 2.92382H9.58174ZM-0.182617 8.79365C-0.182617 3.41881 4.20689 -0.970703 9.58174 -0.970703H23.2617C28.6365 -0.970703 33.026 3.41881 33.026 8.79365V22.4736C33.026 27.8484 28.6365 32.2379 23.2617 32.2379H9.58174C4.20689 32.2379 -0.182617 27.8484 -0.182617 22.4736V8.79365Z" fill="#B1B1B1"/>
<path fill-rule="evenodd" clip-rule="evenodd" d="M16.421 10.7412C13.7188 10.7412 11.5283 12.9317 11.5283 15.6339C11.5283 18.3361 13.7188 20.5266 16.421 20.5266C19.1232 20.5266 21.3137 18.3361 21.3137 15.6339C21.3137 12.9317 19.1232 10.7412 16.421 10.7412ZM7.63379 15.6339C7.63379 10.7809 11.568 6.84668 16.421 6.84668C21.2741 6.84668 25.2082 10.7809 25.2082 15.6339C25.2082 20.4869 21.2741 24.4211 16.421 24.4211C11.568 24.4211 7.63379 20.4869 7.63379 15.6339Z" fill="#B1B1B1"/>
<path fill-rule="evenodd" clip-rule="evenodd" d="M24.2389 7.81005C24.7746 7.81005 25.209 7.37571 25.209 6.83993C25.209 6.30414 24.7746 5.8698 24.2389 5.8698C23.7031 5.8698 23.2687 6.30414 23.2687 6.83993C23.2687 7.37571 23.7031 7.81005 24.2389 7.81005ZM21.3145 6.83993C21.3145 5.22483 22.6238 3.91553 24.2389 3.91553C25.854 3.91553 27.1633 5.22483 27.1633 6.83993C27.1633 8.45503 25.854 9.76433 24.2389 9.76433C22.6238 9.76433 21.3145 8.45503 21.3145 6.83993Z" fill="#B1B1B1"/>
</g>
<defs>
<clipPath id="clip0_25_54">
<rect width="31.2684" height="31.2684" fill="white" transform="translate(0.787109)"/>
</clipPath>
</defs>
</svg>
