<svg width="32" height="32" viewBox="0 0 32 32" fill="none" xmlns="http://www.w3.org/2000/svg">
<g clip-path="url(#clip0_25_61)">
<path d="M16.9074 14.768C16.9191 14.7534 16.9299 14.7377 16.9377 14.7211V14.768H16.9074ZM31.2684 0.731445V31.9998H0V0.731445H31.2684ZM9.69808 12.7356H5.03519V26.7614H9.69808V12.7356ZM10.003 8.39904C9.97364 7.02128 8.99161 5.97378 7.39595 5.97378C5.80224 5.97378 4.75963 7.02128 4.75963 8.39904C4.75963 9.7426 5.77097 10.8214 7.33537 10.8214H7.36566C8.99161 10.8214 10.003 9.7426 10.003 8.39904ZM26.5087 18.7186C26.5087 14.4114 24.2076 12.4073 21.1404 12.4073C18.6672 12.4073 17.5601 13.7665 16.9377 14.7211V12.7356H12.2767C12.3364 14.0508 12.2767 26.7614 12.2767 26.7614H16.9377V18.9287C16.9377 18.5046 16.968 18.0932 17.0911 17.7913C17.4292 16.9568 18.1972 16.0852 19.4831 16.0852C21.1726 16.0852 21.8459 17.3692 21.8459 19.257V26.7614H26.5078L26.5087 18.7186Z" fill="#B1B1B1"/>
</g>
<defs>
<clipPath id="clip0_25_61">
<rect width="31.2684" height="31.2684" fill="white" transform="translate(0 0.731445)"/>
</clipPath>
</defs>
</svg>
