<svg width="33" height="32" viewBox="0 0 33 32" fill="none" xmlns="http://www.w3.org/2000/svg">
<g clip-path="url(#clip0_25_58)">
<path fill-rule="evenodd" clip-rule="evenodd" d="M13.9102 10.5302C14.3052 6.23136 17.8745 2.91504 22.2843 2.91504C24.5097 2.91504 26.5993 3.77452 28.0877 5.24758C28.8224 4.98636 29.4949 4.60889 30.2354 4.13769C30.8309 3.75873 31.6061 3.82366 32.1303 4.29641C32.6545 4.76916 32.7988 5.53356 32.4831 6.16492L31.3386 8.45391L32.5523 8.85845C33.1417 9.05491 33.5598 9.58037 33.6189 10.1988C33.6781 10.8173 33.3671 11.4124 32.8256 11.717L30.4646 13.045C29.9307 21.5622 23.4298 31.0706 11.8289 31.0706C8.10128 31.0706 4.67093 30.003 1.77271 28.0709C1.14882 27.6549 0.905999 26.856 1.19295 26.1632C1.47989 25.4705 2.21655 25.0772 2.95182 25.2243C3.2632 25.2865 3.59663 25.2915 4.10954 25.2915C5.35036 25.2915 6.57069 25.0585 7.70756 24.629C6.18568 23.6637 5.03546 22.1687 4.47038 20.4029C4.34688 20.0169 4.37894 19.6049 4.54791 19.2496C3.18193 17.8516 2.34368 15.9204 2.34368 13.7683V13.6706C2.34368 13.1461 2.60517 12.6595 3.03487 12.3693C2.65417 11.4517 2.4414 10.4391 2.4414 9.37115C2.4414 7.93846 2.79931 6.60021 3.42073 5.48165C3.67543 5.02319 4.14217 4.72213 4.66486 4.67917C5.18756 4.6362 5.6972 4.85699 6.02335 5.26769C8.02591 7.78943 10.7748 9.63126 13.9102 10.5302ZM6.02264 15.9925C6.64148 17.1707 7.73995 18.0143 9.03113 18.2909C9.75915 18.447 10.2776 19.0927 10.2725 19.8373C10.2674 20.5818 9.74016 21.2204 9.01006 21.3664C8.91096 21.3863 8.80334 21.4071 8.68938 21.4278C9.45666 22.1617 10.4691 22.6126 11.5939 22.6543C12.2481 22.6785 12.8186 23.106 13.0256 23.727C13.2326 24.348 13.0327 25.0323 12.5239 25.4442C11.3836 26.3674 10.0839 27.1041 8.68893 27.615C9.69615 27.8222 10.745 27.9297 11.8289 27.9297C21.6967 27.9297 27.2683 19.5722 27.3585 12.0882C27.3653 11.5277 27.6703 11.0132 28.1589 10.7384L28.2593 10.6819C28 10.5108 27.7946 10.2648 27.6734 9.97213C27.4991 9.55153 27.516 9.07602 27.7196 8.66883L27.7623 8.58349C27.2044 8.65579 26.646 8.42357 26.3045 7.96828C25.4436 6.82043 23.9654 6.05589 22.2843 6.05589C19.3408 6.05589 17.0147 8.38191 17.0147 11.3254C17.0147 11.7454 17.0222 11.9437 17.0656 12.1171C17.1935 12.6286 17.0561 13.1702 16.6998 13.559C16.3436 13.9477 15.816 14.1318 15.2953 14.0489C11.6111 13.4628 8.25141 11.8223 5.58227 9.384C5.58653 10.9942 6.3915 12.3687 7.53978 13.1582C8.10663 13.5479 8.35388 14.2611 8.14984 14.9181C7.94581 15.575 7.33798 16.0227 6.65009 16.0227C6.44028 16.0227 6.2308 16.0125 6.02264 15.9925Z" fill="#B1B1B1"/>
</g>
<defs>
<clipPath id="clip0_25_58">
<rect width="31.2684" height="31.2684" fill="white" transform="translate(0.787109 0.577148)"/>
</clipPath>
</defs>
</svg>
