<svg width="235" height="235" viewBox="0 0 235 235" fill="none" xmlns="http://www.w3.org/2000/svg">
<circle cx="117.5" cy="117.5" r="114.778" stroke="white" stroke-width="5.44402"/>
<path d="M53.4094 143H46.8237L65.8716 91.1249H72.356L91.4039 143H84.8182L69.3164 99.3317H68.9112L53.4094 143ZM55.8411 122.736H82.3865V128.309H55.8411V122.736ZM101.612 143H95.026L114.074 91.1249H120.558L139.606 143H133.02L117.519 99.3317H117.113L101.612 143ZM104.043 122.736H130.589V128.309H104.043V122.736ZM186.992 107.336H180.71C180.338 105.529 179.688 103.942 178.759 102.574C177.848 101.206 176.733 100.058 175.416 99.1291C174.116 98.1834 172.672 97.4742 171.085 97.0014C169.497 96.5286 167.842 96.2922 166.12 96.2922C162.979 96.2922 160.134 97.0858 157.584 98.6731C155.051 100.26 153.033 102.599 151.53 105.689C150.044 108.78 149.301 112.571 149.301 117.062C149.301 121.554 150.044 125.345 151.53 128.435C153.033 131.526 155.051 133.864 157.584 135.452C160.134 137.039 162.979 137.833 166.12 137.833C167.842 137.833 169.497 137.596 171.085 137.124C172.672 136.651 174.116 135.95 175.416 135.021C176.733 134.076 177.848 132.919 178.759 131.551C179.688 130.166 180.338 128.579 180.71 126.789H186.992C186.519 129.44 185.658 131.813 184.408 133.907C183.158 136.001 181.605 137.782 179.747 139.251C177.89 140.703 175.804 141.81 173.491 142.569C171.194 143.329 168.737 143.709 166.12 143.709C161.696 143.709 157.761 142.628 154.316 140.467C150.872 138.306 148.161 135.232 146.186 131.247C144.21 127.262 143.222 122.534 143.222 117.062C143.222 111.591 144.21 106.863 146.186 102.878C148.161 98.8927 150.872 95.8193 154.316 93.6579C157.761 91.4964 161.696 90.4157 166.12 90.4157C168.737 90.4157 171.194 90.7956 173.491 91.5555C175.804 92.3154 177.89 93.4299 179.747 94.899C181.605 96.3513 183.158 98.1243 184.408 100.218C185.658 102.295 186.519 104.668 186.992 107.336Z" fill="white"/>
</svg>
