<svg width="235" height="235" viewBox="0 0 235 235" fill="none" xmlns="http://www.w3.org/2000/svg">
<circle cx="117.5" cy="117.5" r="114.778" stroke="white" stroke-width="5.44402"/>
<path d="M77.8816 135.595C75.1371 135.595 72.6075 135.165 70.2928 134.306C68.0112 133.413 66.0107 132.156 64.2912 130.536C62.6048 128.916 61.2821 127.014 60.3232 124.832C59.3973 122.65 58.9344 120.252 58.9344 117.64C58.9344 115.028 59.3973 112.63 60.3232 110.448C61.2821 108.266 62.6213 106.364 64.3408 104.744C66.0603 103.124 68.0773 101.884 70.392 101.024C72.7067 100.131 75.2528 99.6848 78.0304 99.6848C81.1056 99.6848 83.8667 100.197 86.3136 101.222C88.7936 102.247 90.8768 103.735 92.5632 105.686L87.4048 110.448C86.1483 109.125 84.776 108.15 83.288 107.522C81.8 106.86 80.1797 106.53 78.4272 106.53C76.7408 106.53 75.2032 106.794 73.8144 107.323C72.4256 107.852 71.2187 108.613 70.1936 109.605C69.2016 110.597 68.4245 111.771 67.8624 113.126C67.3333 114.482 67.0688 115.987 67.0688 117.64C67.0688 119.26 67.3333 120.748 67.8624 122.104C68.4245 123.46 69.2016 124.65 70.1936 125.675C71.2187 126.667 72.4091 127.428 73.7648 127.957C75.1536 128.486 76.6747 128.75 78.328 128.75C79.9152 128.75 81.4528 128.502 82.9408 128.006C84.4619 127.477 85.9334 126.601 87.3552 125.378L91.9184 131.181C90.0336 132.603 87.8347 133.694 85.3216 134.454C82.8416 135.215 80.3616 135.595 77.8816 135.595ZM84.5776 130.139V117.094H91.9184V131.181L84.5776 130.139ZM102.248 135.397C100.925 135.397 99.7842 134.95 98.8252 134.058C97.8994 133.132 97.4364 131.958 97.4364 130.536C97.4364 129.114 97.8994 127.973 98.8252 127.114C99.7842 126.221 100.925 125.774 102.248 125.774C103.603 125.774 104.744 126.221 105.67 127.114C106.596 127.973 107.059 129.114 107.059 130.536C107.059 131.958 106.596 133.132 105.67 134.058C104.744 134.95 103.603 135.397 102.248 135.397ZM115.397 135L129.385 103.355L131.468 106.827H112.769L116.34 103.058V112.482H109.197V100.28H137.023V105.488L124.127 135H115.397ZM146.441 135V103.256L149.913 106.728H139.497V100.28H154.476V135H146.441ZM165.865 135V103.256L169.337 106.728H158.921V100.28H173.9V135H165.865Z" fill="white"/>
</svg>
