<svg width="235" height="235" viewBox="0 0 235 235" fill="none" xmlns="http://www.w3.org/2000/svg">
<circle cx="117.5" cy="117.5" r="114.778" stroke="white" stroke-width="5.44402"/>
<path d="M91.2027 133.519C88.8103 133.519 86.6052 133.144 84.5875 132.395C82.5986 131.616 80.8547 130.521 79.3558 129.109C77.8858 127.696 76.7328 126.039 75.8969 124.136C75.0898 122.234 74.6862 120.144 74.6862 117.867C74.6862 115.59 75.0898 113.5 75.8969 111.598C76.7328 109.695 77.9002 108.038 79.3991 106.626C80.8979 105.213 82.6562 104.132 84.674 103.383C86.6917 102.604 88.9112 102.215 91.3324 102.215C94.0131 102.215 96.42 102.662 98.553 103.556C100.715 104.449 102.531 105.746 104.001 107.447L99.5042 111.598C98.4089 110.445 97.2126 109.594 95.9155 109.047C94.6184 108.47 93.206 108.182 91.6783 108.182C90.2083 108.182 88.8679 108.413 87.6573 108.874C86.4467 109.335 85.3946 109.998 84.501 110.863C83.6363 111.727 82.9589 112.751 82.4689 113.933C82.0077 115.114 81.7771 116.426 81.7771 117.867C81.7771 119.28 82.0077 120.577 82.4689 121.758C82.9589 122.94 83.6363 123.978 84.501 124.871C85.3946 125.736 86.4323 126.399 87.6141 126.86C88.8247 127.322 90.1506 127.552 91.5919 127.552C92.9754 127.552 94.3158 127.336 95.6129 126.904C96.9388 126.442 98.2215 125.679 99.461 124.612L103.439 129.671C101.796 130.91 99.8789 131.861 97.6883 132.524C95.5264 133.187 93.3646 133.519 91.2027 133.519ZM97.0397 128.763V117.391H103.439V129.671L97.0397 128.763ZM124.646 133.519C122.253 133.519 120.034 133.13 117.987 132.351C115.97 131.573 114.211 130.478 112.712 129.065C111.242 127.653 110.089 125.996 109.253 124.093C108.446 122.191 108.043 120.115 108.043 117.867C108.043 115.619 108.446 113.543 109.253 111.641C110.089 109.739 111.257 108.081 112.756 106.669C114.255 105.256 116.013 104.161 118.031 103.383C120.048 102.604 122.239 102.215 124.603 102.215C126.995 102.215 129.186 102.604 131.175 103.383C133.192 104.161 134.936 105.256 136.406 106.669C137.905 108.081 139.072 109.739 139.908 111.641C140.744 113.515 141.162 115.59 141.162 117.867C141.162 120.115 140.744 122.205 139.908 124.136C139.072 126.039 137.905 127.696 136.406 129.109C134.936 130.492 133.192 131.573 131.175 132.351C129.186 133.13 127.009 133.519 124.646 133.519ZM124.603 127.552C125.957 127.552 127.197 127.322 128.321 126.86C129.474 126.399 130.483 125.736 131.347 124.871C132.212 124.007 132.875 122.983 133.336 121.802C133.826 120.62 134.071 119.308 134.071 117.867C134.071 116.426 133.826 115.114 133.336 113.933C132.875 112.751 132.212 111.727 131.347 110.863C130.512 109.998 129.517 109.335 128.364 108.874C127.211 108.413 125.957 108.182 124.603 108.182C123.248 108.182 121.994 108.413 120.841 108.874C119.717 109.335 118.722 109.998 117.858 110.863C116.993 111.727 116.315 112.751 115.825 113.933C115.364 115.114 115.134 116.426 115.134 117.867C115.134 119.28 115.364 120.591 115.825 121.802C116.315 122.983 116.978 124.007 117.814 124.871C118.679 125.736 119.688 126.399 120.841 126.86C121.994 127.322 123.248 127.552 124.603 127.552ZM146.426 133V102.734H159.527C162.237 102.734 164.571 103.181 166.531 104.075C168.492 104.939 170.005 106.193 171.071 107.836C172.138 109.479 172.671 111.439 172.671 113.716C172.671 115.965 172.138 117.91 171.071 119.553C170.005 121.196 168.492 122.465 166.531 123.358C164.571 124.223 162.237 124.655 159.527 124.655H150.318L153.431 121.499V133H146.426ZM153.431 122.277L150.318 118.948H159.138C161.3 118.948 162.914 118.487 163.981 117.564C165.047 116.642 165.58 115.359 165.58 113.716C165.58 112.045 165.047 110.747 163.981 109.825C162.914 108.903 161.3 108.441 159.138 108.441H150.318L153.431 105.112V122.277Z" fill="white"/>
</svg>
