<svg width="235" height="235" viewBox="0 0 235 235" fill="none" xmlns="http://www.w3.org/2000/svg">
<path d="M72.9248 70.28H80.96V105H72.9248V70.28ZM57.152 105H49.1168V70.28H57.152V105ZM73.52 90.7648H56.5568V83.9696H73.52V90.7648ZM91.5554 105.397C90.2328 105.397 89.092 104.95 88.133 104.058C87.2072 103.132 86.7442 101.958 86.7442 100.536C86.7442 99.1141 87.2072 97.9733 88.133 97.1136C89.092 96.2208 90.2328 95.7744 91.5554 95.7744C92.9112 95.7744 94.052 96.2208 94.9778 97.1136C95.9037 97.9733 96.3666 99.1141 96.3666 100.536C96.3666 101.958 95.9037 103.132 94.9778 104.058C94.052 104.95 92.9112 105.397 91.5554 105.397ZM100.16 105V99.792L113.552 87.144C114.61 86.1851 115.387 85.3253 115.883 84.5648C116.379 83.8043 116.71 83.1099 116.875 82.4816C117.074 81.8533 117.173 81.2747 117.173 80.7456C117.173 79.3568 116.694 78.2986 115.735 77.5712C114.809 76.8106 113.437 76.4304 111.618 76.4304C110.163 76.4304 108.807 76.7114 107.551 77.2736C106.327 77.8357 105.286 78.712 104.426 79.9024L98.5731 76.1328C99.8957 74.1488 101.747 72.5781 104.128 71.4208C106.509 70.2634 109.254 69.6848 112.362 69.6848C114.941 69.6848 117.19 70.1146 119.107 70.9744C121.058 71.801 122.563 72.9749 123.621 74.496C124.712 76.017 125.258 77.8357 125.258 79.952C125.258 81.0763 125.109 82.2005 124.811 83.3248C124.547 84.416 123.985 85.5733 123.125 86.7968C122.298 88.0203 121.075 89.3925 119.455 90.9136L108.344 101.379L106.807 98.4528H126.399V105H100.16ZM145.239 105.595C142.065 105.595 139.303 104.934 136.956 103.611C134.641 102.289 132.855 100.354 131.599 97.808C130.342 95.2619 129.714 92.1205 129.714 88.384C129.714 84.3829 130.458 80.9936 131.946 78.216C133.467 75.4384 135.55 73.3221 138.196 71.8672C140.874 70.4122 143.949 69.6848 147.421 69.6848C149.273 69.6848 151.042 69.8832 152.729 70.28C154.415 70.6768 155.87 71.272 157.093 72.0656L154.117 77.968C153.158 77.3067 152.133 76.8602 151.042 76.6288C149.951 76.3642 148.81 76.232 147.62 76.232C144.611 76.232 142.23 77.1413 140.477 78.96C138.725 80.7787 137.849 83.4736 137.849 87.0448C137.849 87.64 137.849 88.3013 137.849 89.0288C137.882 89.7563 137.981 90.4837 138.146 91.2112L135.914 89.128C136.542 87.8384 137.353 86.7637 138.345 85.904C139.337 85.0112 140.51 84.3499 141.866 83.92C143.255 83.4571 144.776 83.2256 146.429 83.2256C148.678 83.2256 150.695 83.672 152.481 84.5648C154.266 85.4576 155.688 86.7141 156.746 88.3344C157.837 89.9547 158.383 91.856 158.383 94.0384C158.383 96.3861 157.788 98.4363 156.597 100.189C155.44 101.908 153.869 103.247 151.885 104.206C149.934 105.132 147.719 105.595 145.239 105.595ZM144.793 99.5936C145.917 99.5936 146.909 99.3952 147.769 98.9984C148.661 98.5685 149.356 97.9568 149.852 97.1632C150.348 96.3696 150.596 95.4603 150.596 94.4352C150.596 92.848 150.05 91.5915 148.959 90.6656C147.901 89.7067 146.479 89.2272 144.693 89.2272C143.503 89.2272 142.461 89.4587 141.569 89.9216C140.676 90.3515 139.965 90.9632 139.436 91.7568C138.94 92.5173 138.692 93.4101 138.692 94.4352C138.692 95.4272 138.94 96.32 139.436 97.1136C139.932 97.8741 140.626 98.4859 141.519 98.9488C142.412 99.3787 143.503 99.5936 144.793 99.5936ZM173.1 105.595C170.686 105.595 168.289 105.281 165.908 104.653C163.56 103.991 161.543 103.066 159.857 101.875L163.031 95.7248C164.354 96.6837 165.875 97.4443 167.595 98.0064C169.347 98.5685 171.116 98.8496 172.902 98.8496C174.919 98.8496 176.506 98.4528 177.663 97.6592C178.821 96.8656 179.399 95.7579 179.399 94.336C179.399 93.4432 179.168 92.6496 178.705 91.9552C178.242 91.2608 177.415 90.7317 176.225 90.368C175.068 90.0043 173.431 89.8224 171.315 89.8224H162.436L164.222 70.28H185.401V76.728H167.099L171.265 73.0576L170.025 86.9952L165.859 83.3248H173.199C176.638 83.3248 179.399 83.8043 181.483 84.7632C183.599 85.6891 185.136 86.9621 186.095 88.5824C187.054 90.2027 187.534 92.0379 187.534 94.088C187.534 96.1381 187.021 98.0395 185.996 99.792C184.971 101.511 183.384 102.917 181.235 104.008C179.118 105.066 176.407 105.595 173.1 105.595Z" fill="white"/>
<path d="M87.5167 127.777H91.3324V154.487H87.5167V127.777ZM72.1776 154.487H68.3619V127.777H72.1776V154.487ZM87.8602 142.582H71.7961V139.262H87.8602V142.582ZM102.799 139.3H116.536V142.543H102.799V139.3ZM103.143 151.167H118.711V154.487H99.3272V127.777H118.177V131.096H103.143V151.167ZM132.224 154.487L120.472 127.777H124.593L135.391 152.426H133.026L143.9 127.777H147.716L136.002 154.487H132.224ZM162.805 154.792C160.77 154.792 158.887 154.461 157.157 153.8C155.453 153.113 153.965 152.159 152.693 150.938C151.447 149.692 150.467 148.242 149.755 146.588C149.043 144.935 148.686 143.116 148.686 141.132C148.686 139.147 149.043 137.329 149.755 135.675C150.467 134.022 151.459 132.584 152.731 131.363C154.003 130.117 155.491 129.163 157.195 128.502C158.925 127.815 160.808 127.471 162.843 127.471C164.903 127.471 166.798 127.828 168.528 128.54C170.283 129.227 171.771 130.257 172.992 131.631L170.512 134.034C169.495 132.966 168.35 132.177 167.078 131.669C165.806 131.135 164.445 130.867 162.995 130.867C161.495 130.867 160.095 131.122 158.798 131.631C157.526 132.139 156.42 132.852 155.478 133.767C154.537 134.683 153.8 135.777 153.265 137.049C152.757 138.295 152.502 139.656 152.502 141.132C152.502 142.607 152.757 143.981 153.265 145.253C153.8 146.499 154.537 147.58 155.478 148.496C156.42 149.412 157.526 150.124 158.798 150.633C160.095 151.141 161.495 151.396 162.995 151.396C164.445 151.396 165.806 151.141 167.078 150.633C168.35 150.099 169.495 149.285 170.512 148.191L172.992 150.595C171.771 151.968 170.283 153.011 168.528 153.723C166.798 154.436 164.89 154.792 162.805 154.792Z" fill="white"/>
<circle cx="117.5" cy="117.5" r="114.778" stroke="white" stroke-width="5.44402"/>
</svg>
