<svg width="235" height="235" viewBox="0 0 235 235" fill="none" xmlns="http://www.w3.org/2000/svg">
<circle cx="117.5" cy="117.5" r="114.778" stroke="white" stroke-width="5.44402"/>
<path d="M70.5693 76.7935H78.6046V111.514H70.5693V76.7935ZM54.7965 111.514H46.7613V76.7935H54.7965V111.514ZM71.1646 97.2783H54.2013V90.4831H71.1646V97.2783ZM89.2 111.91C87.8773 111.91 86.7365 111.464 85.7776 110.571C84.8517 109.645 84.3888 108.471 84.3888 107.05C84.3888 105.628 84.8517 104.487 85.7776 103.627C86.7365 102.734 87.8773 102.288 89.2 102.288C90.5557 102.288 91.6965 102.734 92.6224 103.627C93.5482 104.487 94.0112 105.628 94.0112 107.05C94.0112 108.471 93.5482 109.645 92.6224 110.571C91.6965 111.464 90.5557 111.91 89.2 111.91ZM97.8048 111.514V106.306L111.197 93.6575C112.255 92.6986 113.032 91.8389 113.528 91.0783C114.024 90.3178 114.355 89.6234 114.52 88.9951C114.718 88.3669 114.818 87.7882 114.818 87.2591C114.818 85.8703 114.338 84.8122 113.379 84.0847C112.453 83.3242 111.081 82.9439 109.262 82.9439C107.807 82.9439 106.452 83.225 105.195 83.7871C103.972 84.3493 102.93 85.2255 102.07 86.4159L96.2176 82.6463C97.5403 80.6623 99.392 79.0917 101.773 77.9343C104.154 76.777 106.898 76.1983 110.006 76.1983C112.586 76.1983 114.834 76.6282 116.752 77.4879C118.703 78.3146 120.207 79.4885 121.266 81.0095C122.357 82.5306 122.902 84.3493 122.902 86.4655C122.902 87.5898 122.754 88.7141 122.456 89.8383C122.191 90.9295 121.629 92.0869 120.77 93.3103C119.943 94.5338 118.719 95.9061 117.099 97.4271L105.989 107.893L104.451 104.966H124.043V111.514H97.8048ZM142.883 112.109C139.709 112.109 136.948 111.447 134.6 110.125C132.286 108.802 130.5 106.868 129.243 104.322C127.987 101.775 127.359 98.6341 127.359 94.8975C127.359 90.8965 128.103 87.5071 129.591 84.7295C131.112 81.9519 133.195 79.8357 135.84 78.3807C138.519 76.9258 141.594 76.1983 145.066 76.1983C146.918 76.1983 148.687 76.3967 150.373 76.7935C152.059 77.1903 153.514 77.7855 154.738 78.5791L151.762 84.4815C150.803 83.8202 149.778 83.3738 148.687 83.1423C147.595 82.8778 146.455 82.7455 145.264 82.7455C142.255 82.7455 139.874 83.6549 138.122 85.4735C136.369 87.2922 135.493 89.9871 135.493 93.5583C135.493 94.1535 135.493 94.8149 135.493 95.5423C135.526 96.2698 135.625 96.9973 135.791 97.7247L133.559 95.6415C134.187 94.3519 134.997 93.2773 135.989 92.4175C136.981 91.5247 138.155 90.8634 139.511 90.4335C140.899 89.9706 142.421 89.7391 144.074 89.7391C146.322 89.7391 148.339 90.1855 150.125 91.0783C151.911 91.9711 153.333 93.2277 154.391 94.8479C155.482 96.4682 156.027 98.3695 156.027 100.552C156.027 102.9 155.432 104.95 154.242 106.702C153.085 108.422 151.514 109.761 149.53 110.72C147.579 111.646 145.363 112.109 142.883 112.109ZM142.437 106.107C143.561 106.107 144.553 105.909 145.413 105.512C146.306 105.082 147 104.47 147.496 103.677C147.992 102.883 148.24 101.974 148.24 100.949C148.24 99.3615 147.695 98.105 146.603 97.1791C145.545 96.2202 144.123 95.7407 142.338 95.7407C141.147 95.7407 140.106 95.9722 139.213 96.4351C138.32 96.865 137.609 97.4767 137.08 98.2703C136.584 99.0309 136.336 99.9237 136.336 100.949C136.336 101.941 136.584 102.834 137.08 103.627C137.576 104.388 138.271 104.999 139.163 105.462C140.056 105.892 141.147 106.107 142.437 106.107ZM158.543 104.222V98.8159L174.911 76.7935H183.343L167.322 98.8159L163.404 97.6751H190.734V104.222H158.543ZM177.242 111.514V104.222L177.49 97.6751V91.1775H185.079V111.514H177.242Z" fill="white"/>
<rect x="47.5117" y="121.913" width="145.999" height="48.6662" fill="white"/>
<path d="M61.6452 154.513V141.396H63.1817L69.0654 151.309H68.2409L74.0496 141.396H75.5861L75.6049 154.513H73.806L73.7873 144.226H74.2183L69.0466 152.92H68.1847L62.9756 144.226H63.444V154.513H61.6452ZM79.5413 154.513V141.396H84.6567C85.8059 141.396 86.7865 141.578 87.5985 141.94C88.4105 142.302 89.0351 142.827 89.4723 143.514C89.9095 144.201 90.1281 145.019 90.1281 145.969C90.1281 146.918 89.9095 147.736 89.4723 148.423C89.0351 149.098 88.4105 149.622 87.5985 149.997C86.7865 150.359 85.8059 150.541 84.6567 150.541H80.5718L81.415 149.66V154.513H79.5413ZM81.415 149.847L80.5718 148.91H84.6005C85.7997 148.91 86.7053 148.654 87.3174 148.142C87.942 147.63 88.2543 146.905 88.2543 145.969C88.2543 145.032 87.942 144.307 87.3174 143.795C86.7053 143.283 85.7997 143.027 84.6005 143.027H80.5718L81.415 142.09V149.847ZM94.5861 147.055H101.332V148.648H94.5861V147.055ZM94.7547 152.883H102.4V154.513H92.8809V141.396H102.137V143.027H94.7547V152.883ZM111.337 154.663C110.325 154.663 109.394 154.5 108.545 154.176C107.695 153.838 106.958 153.37 106.334 152.77C105.709 152.158 105.222 151.446 104.872 150.634C104.522 149.822 104.347 148.929 104.347 147.955C104.347 146.98 104.522 146.087 104.872 145.275C105.222 144.463 105.709 143.757 106.334 143.158C106.971 142.546 107.714 142.077 108.563 141.753C109.413 141.415 110.35 141.247 111.374 141.247C112.411 141.247 113.36 141.415 114.222 141.753C115.084 142.09 115.815 142.596 116.415 143.27L115.253 144.432C114.716 143.907 114.129 143.526 113.491 143.289C112.867 143.039 112.186 142.914 111.449 142.914C110.7 142.914 110 143.039 109.35 143.289C108.713 143.539 108.157 143.889 107.683 144.338C107.221 144.788 106.858 145.325 106.596 145.95C106.346 146.562 106.221 147.23 106.221 147.955C106.221 148.667 106.346 149.335 106.596 149.96C106.858 150.572 107.221 151.109 107.683 151.571C108.157 152.021 108.713 152.371 109.35 152.62C109.988 152.87 110.681 152.995 111.43 152.995C112.13 152.995 112.798 152.889 113.435 152.677C114.085 152.452 114.684 152.083 115.234 151.571L116.302 152.995C115.653 153.545 114.891 153.963 114.016 154.251C113.154 154.525 112.261 154.663 111.337 154.663ZM114.503 152.752V147.88H116.302V152.995L114.503 152.752ZM118.99 150.147V148.592H124.031V150.147H118.99ZM125.935 151.29V149.978L132.644 141.396H134.667L128.015 149.978L127.06 149.679H137.534V151.29H125.935ZM133.224 154.513V151.29L133.281 149.679V146.83H135.042V154.513H133.224ZM137.746 156.387L143.929 138.736H145.559L139.376 156.387H137.746ZM144.089 154.513L150.029 141.396H151.884L157.842 154.513H155.875L150.572 142.446H151.322L146.019 154.513H144.089ZM146.618 151.234L147.124 149.735H154.507L155.05 151.234H146.618ZM162.889 154.513L157.117 141.396H159.141L164.444 153.501H163.282L168.622 141.396H170.496L164.744 154.513H162.889ZM177.906 154.663C176.906 154.663 175.982 154.5 175.133 154.176C174.296 153.838 173.565 153.37 172.94 152.77C172.328 152.158 171.847 151.446 171.497 150.634C171.148 149.822 170.973 148.929 170.973 147.955C170.973 146.98 171.148 146.087 171.497 145.275C171.847 144.463 172.334 143.757 172.959 143.158C173.584 142.546 174.314 142.077 175.151 141.753C176.001 141.415 176.925 141.247 177.924 141.247C178.936 141.247 179.867 141.421 180.716 141.771C181.578 142.109 182.309 142.614 182.909 143.289L181.691 144.469C181.191 143.945 180.629 143.558 180.004 143.308C179.38 143.045 178.711 142.914 177.999 142.914C177.262 142.914 176.575 143.039 175.938 143.289C175.314 143.539 174.77 143.889 174.308 144.338C173.846 144.788 173.484 145.325 173.221 145.95C172.971 146.562 172.847 147.23 172.847 147.955C172.847 148.679 172.971 149.354 173.221 149.978C173.484 150.59 173.846 151.121 174.308 151.571C174.77 152.021 175.314 152.371 175.938 152.62C176.575 152.87 177.262 152.995 177.999 152.995C178.711 152.995 179.38 152.87 180.004 152.62C180.629 152.358 181.191 151.958 181.691 151.421L182.909 152.602C182.309 153.276 181.578 153.788 180.716 154.138C179.867 154.488 178.93 154.663 177.906 154.663Z" fill="black"/>
</svg>
