<svg width="235" height="235" viewBox="0 0 235 235" fill="none" xmlns="http://www.w3.org/2000/svg">
<circle cx="117.5" cy="117.5" r="114.778" stroke="white" stroke-width="5.44402"/>
<path d="M46.2817 86.1249H53.7793L71.4087 129.185H72.0167L89.6461 86.1249H97.1436V138H91.2672V98.5871H90.7606L74.5496 138H68.8758L52.6648 98.5871H52.1582V138H46.2817V86.1249ZM109.739 138V86.1249H127.267C131.337 86.1249 134.663 86.8595 137.247 88.3286C139.847 89.7808 141.772 91.7481 143.022 94.2304C144.272 96.7127 144.896 99.4821 144.896 102.539C144.896 105.595 144.272 108.373 143.022 110.872C141.789 113.371 139.881 115.364 137.297 116.85C134.714 118.319 131.404 119.053 127.368 119.053H114.805V113.481H127.166C129.952 113.481 132.189 113 133.878 112.037C135.567 111.075 136.791 109.774 137.551 108.136C138.328 106.481 138.716 104.616 138.716 102.539C138.716 100.461 138.328 98.604 137.551 96.966C136.791 95.328 135.558 94.0446 133.853 93.1159C132.147 92.1703 129.884 91.6974 127.064 91.6974H116.021V138H109.739ZM171.632 138.709C168.288 138.709 165.308 138.135 162.69 136.987C160.09 135.839 158.021 134.243 156.485 132.2C154.965 130.139 154.137 127.75 154.002 125.031H160.385C160.52 126.703 161.095 128.147 162.108 129.363C163.121 130.562 164.447 131.49 166.085 132.149C167.723 132.807 169.538 133.137 171.53 133.137C173.759 133.137 175.735 132.748 177.458 131.972C179.18 131.195 180.531 130.114 181.51 128.729C182.49 127.345 182.979 125.74 182.979 123.917C182.979 122.009 182.507 120.328 181.561 118.876C180.615 117.407 179.231 116.259 177.407 115.431C175.583 114.604 173.354 114.19 170.72 114.19H166.566V108.618H170.72C172.78 108.618 174.587 108.246 176.14 107.503C177.711 106.76 178.935 105.713 179.813 104.362C180.708 103.011 181.156 101.424 181.156 99.6003C181.156 97.8441 180.767 96.3159 179.991 95.0156C179.214 93.7154 178.116 92.7022 176.698 91.9761C175.296 91.2499 173.641 90.8869 171.733 90.8869C169.943 90.8869 168.254 91.2162 166.667 91.8747C165.097 92.5164 163.813 93.4536 162.817 94.6863C161.821 95.9022 161.28 97.3713 161.196 99.0937H155.117C155.218 96.375 156.037 93.994 157.574 91.9507C159.11 89.8906 161.12 88.2864 163.602 87.1381C166.101 85.9898 168.845 85.4157 171.834 85.4157C175.043 85.4157 177.795 86.0658 180.092 87.3661C182.388 88.6494 184.153 90.3465 185.386 92.4573C186.618 94.5681 187.235 96.8478 187.235 99.2963C187.235 102.218 186.466 104.708 184.93 106.769C183.41 108.829 181.341 110.256 178.724 111.049V111.455C182 111.995 184.558 113.388 186.399 115.634C188.24 117.863 189.16 120.624 189.16 123.917C189.16 126.737 188.392 129.27 186.855 131.516C185.335 133.745 183.258 135.501 180.624 136.784C177.989 138.068 174.992 138.709 171.632 138.709Z" fill="white"/>
</svg>
