<svg width="235" height="235" viewBox="0 0 235 235" fill="none" xmlns="http://www.w3.org/2000/svg">
<path d="M22.6124 127V107.546H25.586L37.7863 122.526H36.3133V107.546H39.8984V127H36.9247L24.7245 112.021H26.1974V127H22.6124ZM48.4461 115.633H58.1174V118.607H48.4461V115.633ZM48.724 123.971H59.7015V127H45.1112V107.546H59.3124V110.575H48.724V123.971ZM63.729 127V107.546H67.3418V123.943H77.5133V127H63.729ZM80.3656 127V107.546H83.9785V123.943H94.15V127H80.3656ZM99.7468 127V119.302L100.553 121.525L92.1043 107.546H95.9673L102.748 118.802H100.581L107.417 107.546H110.974L102.526 121.525L103.36 119.302V127H99.7468ZM113.096 127V107.546H116.07L124.574 121.747H123.017L131.383 107.546H134.356L134.384 127H130.966L130.938 112.91H131.661L124.546 124.777H122.934L115.708 112.91H116.542V127H113.096ZM148.754 127.278C147.235 127.278 145.836 127.028 144.558 126.528C143.279 126.027 142.168 125.333 141.223 124.443C140.278 123.535 139.546 122.479 139.027 121.275C138.509 120.052 138.249 118.718 138.249 117.273C138.249 115.828 138.509 114.503 139.027 113.299C139.546 112.076 140.278 111.02 141.223 110.131C142.168 109.223 143.279 108.519 144.558 108.019C145.836 107.518 147.226 107.268 148.726 107.268C150.246 107.268 151.635 107.518 152.895 108.019C154.173 108.519 155.285 109.223 156.23 110.131C157.175 111.02 157.907 112.076 158.425 113.299C158.944 114.503 159.204 115.828 159.204 117.273C159.204 118.718 158.944 120.052 158.425 121.275C157.907 122.498 157.175 123.554 156.23 124.443C155.285 125.333 154.173 126.027 152.895 126.528C151.635 127.028 150.255 127.278 148.754 127.278ZM148.726 124.11C149.708 124.11 150.616 123.943 151.45 123.609C152.284 123.276 153.006 122.804 153.618 122.192C154.229 121.562 154.701 120.84 155.035 120.024C155.387 119.191 155.563 118.274 155.563 117.273C155.563 116.273 155.387 115.365 155.035 114.55C154.701 113.716 154.229 112.993 153.618 112.382C153.006 111.752 152.284 111.27 151.45 110.937C150.616 110.603 149.708 110.437 148.726 110.437C147.744 110.437 146.837 110.603 146.003 110.937C145.188 111.27 144.465 111.752 143.835 112.382C143.224 112.993 142.742 113.716 142.39 114.55C142.057 115.365 141.89 116.273 141.89 117.273C141.89 118.255 142.057 119.163 142.39 119.997C142.742 120.83 143.224 121.562 143.835 122.192C144.447 122.804 145.169 123.276 146.003 123.609C146.837 123.943 147.744 124.11 148.726 124.11ZM169.064 127.278C167.545 127.278 166.09 127.065 164.701 126.639C163.311 126.194 162.209 125.629 161.393 124.943L162.644 122.137C163.422 122.748 164.386 123.257 165.534 123.665C166.683 124.073 167.859 124.276 169.064 124.276C170.083 124.276 170.907 124.165 171.537 123.943C172.167 123.721 172.63 123.424 172.927 123.054C173.223 122.665 173.371 122.229 173.371 121.747C173.371 121.155 173.158 120.682 172.732 120.33C172.306 119.96 171.75 119.672 171.065 119.469C170.398 119.246 169.647 119.042 168.814 118.857C167.998 118.672 167.174 118.459 166.34 118.218C165.525 117.959 164.775 117.634 164.089 117.245C163.422 116.838 162.876 116.3 162.45 115.633C162.023 114.966 161.81 114.114 161.81 113.077C161.81 112.021 162.088 111.057 162.644 110.186C163.218 109.297 164.08 108.593 165.229 108.074C166.396 107.537 167.869 107.268 169.647 107.268C170.815 107.268 171.973 107.417 173.121 107.713C174.27 108.009 175.27 108.436 176.123 108.991L174.983 111.798C174.112 111.28 173.214 110.9 172.288 110.659C171.361 110.399 170.472 110.27 169.62 110.27C168.619 110.27 167.804 110.39 167.174 110.631C166.563 110.872 166.109 111.187 165.812 111.576C165.534 111.965 165.395 112.41 165.395 112.91C165.395 113.503 165.599 113.985 166.007 114.355C166.433 114.707 166.979 114.985 167.646 115.189C168.332 115.393 169.092 115.596 169.925 115.8C170.759 115.985 171.583 116.199 172.399 116.439C173.232 116.68 173.983 116.995 174.65 117.384C175.335 117.773 175.882 118.301 176.289 118.968C176.716 119.635 176.929 120.478 176.929 121.497C176.929 122.535 176.641 123.498 176.067 124.388C175.511 125.258 174.65 125.962 173.483 126.5C172.315 127.019 170.842 127.278 169.064 127.278ZM183.846 115.633H193.517V118.607H183.846V115.633ZM184.124 123.971H195.101V127H180.511V107.546H194.712V110.575H184.124V123.971ZM199.129 127V107.546H207.133C208.856 107.546 210.329 107.824 211.552 108.38C212.793 108.936 213.747 109.732 214.414 110.77C215.081 111.808 215.414 113.04 215.414 114.466C215.414 115.893 215.081 117.125 214.414 118.162C213.747 119.181 212.793 119.969 211.552 120.525C210.329 121.062 208.856 121.331 207.133 121.331H201.13L202.742 119.691V127H199.129ZM211.857 127L206.938 119.941H210.801L215.748 127H211.857ZM202.742 120.08L201.13 118.357H206.966C208.559 118.357 209.754 118.014 210.551 117.329C211.366 116.643 211.774 115.689 211.774 114.466C211.774 113.225 211.366 112.271 210.551 111.604C209.754 110.937 208.559 110.603 206.966 110.603H201.13L202.742 108.825V120.08Z" fill="white"/>
<circle cx="117.5" cy="117.5" r="114.778" stroke="white" stroke-width="5.44402"/>
</svg>
