<svg width="235" height="235" viewBox="0 0 235 235" fill="none" xmlns="http://www.w3.org/2000/svg">
<circle cx="117.5" cy="117.5" r="114.778" stroke="white" stroke-width="5.44402"/>
<path d="M71.2892 133.519C68.8968 133.519 66.6773 133.13 64.6307 132.351C62.613 131.573 60.8547 130.478 59.3558 129.065C57.8858 127.653 56.7328 125.996 55.8969 124.093C55.0898 122.191 54.6862 120.115 54.6862 117.867C54.6862 115.619 55.0898 113.543 55.8969 111.641C56.7328 109.739 57.9002 108.081 59.3991 106.669C60.8979 105.256 62.6562 104.161 64.674 103.383C66.6917 102.604 68.8823 102.215 71.246 102.215C73.6384 102.215 75.8291 102.604 77.818 103.383C79.8357 104.161 81.5796 105.256 83.0496 106.669C84.5485 108.081 85.7159 109.739 86.5518 111.641C87.3877 113.515 87.8057 115.59 87.8057 117.867C87.8057 120.115 87.3877 122.205 86.5518 124.136C85.7159 126.039 84.5485 127.696 83.0496 129.109C81.5796 130.492 79.8357 131.573 77.818 132.351C75.8291 133.13 73.6528 133.519 71.2892 133.519ZM71.246 127.552C72.6007 127.552 73.8402 127.322 74.9643 126.86C76.1173 126.399 77.1262 125.736 77.9909 124.871C78.8556 124.007 79.5186 122.983 79.9798 121.802C80.4698 120.62 80.7148 119.308 80.7148 117.867C80.7148 116.426 80.4698 115.114 79.9798 113.933C79.5186 112.751 78.8556 111.727 77.9909 110.863C77.155 109.998 76.1605 109.335 75.0076 108.874C73.8546 108.413 72.6007 108.182 71.246 108.182C69.8912 108.182 68.6373 108.413 67.4844 108.874C66.3602 109.335 65.3657 109.998 64.501 110.863C63.6363 111.727 62.9589 112.751 62.4689 113.933C62.0077 115.114 61.7771 116.426 61.7771 117.867C61.7771 119.28 62.0077 120.591 62.4689 121.802C62.9589 122.983 63.6219 124.007 64.4578 124.871C65.3225 125.736 66.3314 126.399 67.4844 126.86C68.6373 127.322 69.8912 127.552 71.246 127.552ZM93.0698 133V102.734H106.171C108.88 102.734 111.215 103.181 113.175 104.075C115.135 104.939 116.648 106.193 117.715 107.836C118.781 109.479 119.315 111.439 119.315 113.716C119.315 115.965 118.781 117.91 117.715 119.553C116.648 121.196 115.135 122.465 113.175 123.358C111.215 124.223 108.88 124.655 106.171 124.655H96.9611L100.074 121.499V133H93.0698ZM100.074 122.277L96.9611 118.948H105.781C107.943 118.948 109.557 118.487 110.624 117.564C111.69 116.642 112.224 115.359 112.224 113.716C112.224 112.045 111.69 110.747 110.624 109.825C109.557 108.903 107.943 108.441 105.781 108.441H96.9611L100.074 105.112V122.277ZM137.593 133.519C133.298 133.519 129.94 132.323 127.519 129.93C125.097 127.538 123.887 124.122 123.887 119.683V102.734H130.891V119.424C130.891 122.306 131.482 124.381 132.664 125.65C133.846 126.918 135.503 127.552 137.636 127.552C139.769 127.552 141.427 126.918 142.608 125.65C143.79 124.381 144.381 122.306 144.381 119.424V102.734H151.299V119.683C151.299 124.122 150.088 127.538 147.667 129.93C145.246 132.323 141.888 133.519 137.593 133.519ZM168.165 133.519C165.744 133.519 163.423 133.202 161.204 132.568C158.984 131.905 157.197 131.054 155.843 130.017L158.221 124.742C159.518 125.664 161.045 126.428 162.804 127.033C164.591 127.61 166.392 127.898 168.208 127.898C169.592 127.898 170.702 127.768 171.538 127.509C172.402 127.221 173.036 126.832 173.44 126.342C173.844 125.852 174.045 125.289 174.045 124.655C174.045 123.848 173.728 123.214 173.094 122.753C172.46 122.263 171.624 121.874 170.586 121.585C169.549 121.268 168.396 120.98 167.127 120.721C165.888 120.432 164.634 120.087 163.366 119.683C162.126 119.28 160.988 118.761 159.95 118.127C158.912 117.492 158.062 116.656 157.399 115.619C156.765 114.581 156.448 113.255 156.448 111.641C156.448 109.912 156.909 108.341 157.832 106.928C158.783 105.487 160.195 104.348 162.069 103.512C163.971 102.648 166.349 102.215 169.203 102.215C171.105 102.215 172.979 102.446 174.824 102.907C176.668 103.34 178.297 104.002 179.709 104.896L177.548 110.214C176.135 109.407 174.723 108.816 173.31 108.441C171.898 108.038 170.514 107.836 169.16 107.836C167.805 107.836 166.695 107.995 165.83 108.312C164.966 108.629 164.346 109.047 163.971 109.566C163.596 110.056 163.409 110.632 163.409 111.295C163.409 112.073 163.726 112.707 164.36 113.198C164.994 113.659 165.83 114.033 166.868 114.322C167.906 114.61 169.044 114.898 170.284 115.186C171.552 115.475 172.806 115.806 174.045 116.181C175.314 116.556 176.467 117.06 177.504 117.694C178.542 118.328 179.378 119.164 180.012 120.202C180.675 121.24 181.006 122.551 181.006 124.136C181.006 125.837 180.531 127.394 179.58 128.806C178.628 130.218 177.202 131.357 175.299 132.222C173.426 133.086 171.048 133.519 168.165 133.519Z" fill="white"/>
</svg>
