<svg width="235" height="235" viewBox="0 0 235 235" fill="none" xmlns="http://www.w3.org/2000/svg">
<circle cx="117.5" cy="117.5" r="114.778" stroke="white" stroke-width="5.44402"/>
<path d="M42.6699 136.326C39.8464 136.326 37.1314 135.873 34.525 134.968C31.9548 134.027 29.9639 132.833 28.5521 131.385L30.1268 128.289C31.4661 129.593 33.258 130.697 35.5024 131.602C37.783 132.471 40.1722 132.905 42.6699 132.905C45.0591 132.905 46.9958 132.615 48.48 132.036C50.0003 131.421 51.1044 130.606 51.7922 129.593C52.5162 128.579 52.8782 127.457 52.8782 126.226C52.8782 124.742 52.4438 123.547 51.575 122.642C50.7424 121.737 49.6384 121.031 48.2628 120.525C46.8872 119.982 45.3668 119.511 43.7016 119.113C42.0364 118.715 40.3712 118.298 38.7061 117.864C37.0409 117.393 35.5024 116.778 34.0906 116.018C32.715 115.258 31.5928 114.262 30.7241 113.031C29.8915 111.764 29.4752 110.117 29.4752 108.09C29.4752 106.208 29.9639 104.488 30.9412 102.932C31.9548 101.339 33.4933 100.072 35.5567 99.1307C37.6201 98.1533 40.2627 97.6646 43.4844 97.6646C45.6202 97.6646 47.7379 97.9723 49.8374 98.5877C51.937 99.1669 53.747 99.9814 55.2674 101.031L53.9099 104.235C52.2809 103.149 50.5433 102.352 48.6972 101.846C46.8872 101.339 45.1315 101.085 43.4301 101.085C41.1495 101.085 39.2672 101.393 37.783 102.009C36.2988 102.624 35.1947 103.457 34.4707 104.506C33.7829 105.52 33.439 106.678 33.439 107.981C33.439 109.466 33.8553 110.66 34.6879 111.565C35.5567 112.47 36.6789 113.176 38.0545 113.683C39.4663 114.19 41.0047 114.642 42.6699 115.04C44.3351 115.439 45.9822 115.873 47.6112 116.344C49.2764 116.814 50.7967 117.43 52.1723 118.19C53.5841 118.914 54.7063 119.891 55.5389 121.122C56.4077 122.353 56.8421 123.964 56.8421 125.955C56.8421 127.801 56.3353 129.52 55.3217 131.113C54.3081 132.67 52.7515 133.937 50.6519 134.914C48.5886 135.855 45.9279 136.326 42.6699 136.326ZM65.597 136V97.9904H79.8235C83.0452 97.9904 85.8145 98.5153 88.1313 99.5651C90.4481 100.579 92.2218 102.063 93.4526 104.018C94.7196 105.936 95.3531 108.271 95.3531 111.022C95.3531 113.701 94.7196 116.018 93.4526 117.973C92.2218 119.891 90.4481 121.375 88.1313 122.425C85.8145 123.475 83.0452 124 79.8235 124H67.8233L69.6152 122.099V136H65.597ZM69.6152 122.425L67.8233 120.47H79.7149C83.5158 120.47 86.3937 119.656 88.3485 118.027C90.3395 116.362 91.3349 114.027 91.3349 111.022C91.3349 107.981 90.3395 105.629 88.3485 103.963C86.3937 102.298 83.5158 101.466 79.7149 101.466H67.8233L69.6152 99.5651V122.425ZM107.625 114.986H127.716V118.407H107.625V114.986ZM108.06 132.525H130.92V136H104.041V97.9904H130.105V101.466H108.06V132.525ZM143.949 114.986H164.039V118.407H143.949V114.986ZM144.383 132.525H167.243V136H140.365V97.9904H166.429V101.466H144.383V132.525ZM170.944 136L186.528 114.932V118.027L171.867 97.9904H176.482L188.808 114.715L187.016 114.769L199.342 97.9904H203.686L189.188 117.755V114.932L204.718 136H200.048L186.908 118.135H188.591L175.559 136H170.944Z" fill="white"/>
</svg>
