<svg width="235" height="235" viewBox="0 0 235 235" fill="none" xmlns="http://www.w3.org/2000/svg">
<circle cx="117.5" cy="117.5" r="114.778" stroke="white" stroke-width="5.44402"/>
<path d="M70.166 134L51.442 90.6H62.292L78.66 129.04H72.274L88.89 90.6H98.872L80.086 134H70.166ZM102.496 134V90.6H121.282C125.167 90.6 128.515 91.2406 131.326 92.522C134.136 93.762 136.306 95.56 137.836 97.916C139.365 100.272 140.13 103.083 140.13 106.348C140.13 109.572 139.365 112.362 137.836 114.718C136.306 117.074 134.136 118.893 131.326 120.174C128.515 121.414 125.167 122.034 121.282 122.034H108.076L112.54 117.508V134H102.496ZM112.54 118.624L108.076 113.85H120.724C123.824 113.85 126.138 113.189 127.668 111.866C129.197 110.543 129.962 108.704 129.962 106.348C129.962 103.951 129.197 102.091 127.668 100.768C126.138 99.4453 123.824 98.784 120.724 98.784H108.076L112.54 94.01V118.624ZM162.673 134.744C159.036 134.744 155.853 134.207 153.125 133.132C150.397 132.016 148.269 130.466 146.739 128.482C145.21 126.457 144.445 124.101 144.445 121.414C144.445 118.727 145.189 116.454 146.677 114.594C148.207 112.693 150.335 111.267 153.063 110.316C155.791 109.324 158.995 108.828 162.673 108.828C166.393 108.828 169.617 109.324 172.345 110.316C175.115 111.267 177.243 112.693 178.731 114.594C180.261 116.454 181.025 118.727 181.025 121.414C181.025 124.101 180.261 126.457 178.731 128.482C177.202 130.466 175.053 132.016 172.283 133.132C169.555 134.207 166.352 134.744 162.673 134.744ZM162.673 127.366C165.195 127.366 167.179 126.808 168.625 125.692C170.113 124.576 170.857 123.047 170.857 121.104C170.857 119.161 170.113 117.653 168.625 116.578C167.179 115.462 165.195 114.904 162.673 114.904C160.193 114.904 158.23 115.462 156.783 116.578C155.337 117.653 154.613 119.161 154.613 121.104C154.613 123.047 155.337 124.576 156.783 125.692C158.23 126.808 160.193 127.366 162.673 127.366ZM162.673 113.912C159.325 113.912 156.391 113.457 153.869 112.548C151.389 111.639 149.447 110.316 148.041 108.58C146.677 106.803 145.995 104.695 145.995 102.256C145.995 99.6933 146.698 97.5026 148.103 95.684C149.509 93.824 151.472 92.398 153.993 91.406C156.515 90.3726 159.408 89.856 162.673 89.856C166.021 89.856 168.935 90.3726 171.415 91.406C173.937 92.398 175.9 93.824 177.305 95.684C178.752 97.5026 179.475 99.6933 179.475 102.256C179.475 104.695 178.773 106.803 177.367 108.58C176.003 110.316 174.061 111.639 171.539 112.548C169.018 113.457 166.063 113.912 162.673 113.912ZM162.673 108.022C164.781 108.022 166.435 107.547 167.633 106.596C168.873 105.645 169.493 104.343 169.493 102.69C169.493 100.954 168.853 99.6106 167.571 98.66C166.331 97.7093 164.699 97.234 162.673 97.234C160.689 97.234 159.077 97.7093 157.837 98.66C156.597 99.6106 155.977 100.954 155.977 102.69C155.977 104.343 156.577 105.645 157.775 106.596C158.974 107.547 160.607 108.022 162.673 108.022Z" fill="white"/>
</svg>
