<svg width="235" height="235" viewBox="0 0 235 235" fill="none" xmlns="http://www.w3.org/2000/svg">
<circle cx="117.5" cy="117.5" r="114.778" stroke="white" stroke-width="5.44402"/>
<path d="M70.166 144L51.442 100.6H62.292L78.66 139.04H72.274L88.89 100.6H98.872L80.086 144H70.166ZM102.496 144V100.6H121.282C125.167 100.6 128.515 101.241 131.326 102.522C134.136 103.762 136.306 105.56 137.836 107.916C139.365 110.272 140.13 113.083 140.13 116.348C140.13 119.572 139.365 122.362 137.836 124.718C136.306 127.074 134.136 128.893 131.326 130.174C128.515 131.414 125.167 132.034 121.282 132.034H108.076L112.54 127.508V144H102.496ZM112.54 128.624L108.076 123.85H120.724C123.824 123.85 126.138 123.189 127.668 121.866C129.197 120.543 129.962 118.704 129.962 116.348C129.962 113.951 129.197 112.091 127.668 110.768C126.138 109.445 123.824 108.784 120.724 108.784H108.076L112.54 104.01V128.624ZM160.43 99.856C164.439 99.856 167.891 100.683 170.784 102.336C173.677 103.989 175.909 106.407 177.48 109.59C179.051 112.731 179.836 116.658 179.836 121.37C179.836 126.371 178.885 130.608 176.984 134.08C175.124 137.552 172.541 140.197 169.234 142.016C165.927 143.835 162.083 144.744 157.702 144.744C155.428 144.744 153.238 144.496 151.13 144C149.022 143.504 147.203 142.76 145.674 141.768L149.394 134.39C150.592 135.217 151.874 135.795 153.238 136.126C154.602 136.415 156.028 136.56 157.516 136.56C161.236 136.56 164.191 135.423 166.382 133.15C168.614 130.877 169.73 127.508 169.73 123.044C169.73 122.3 169.709 121.473 169.668 120.564C169.627 119.655 169.523 118.745 169.358 117.836L172.086 120.44C171.383 122.052 170.391 123.416 169.11 124.532C167.829 125.607 166.341 126.433 164.646 127.012C162.951 127.549 161.05 127.818 158.942 127.818C156.172 127.818 153.651 127.26 151.378 126.144C149.146 125.028 147.348 123.457 145.984 121.432C144.661 119.407 144 117.03 144 114.302C144 111.326 144.723 108.763 146.17 106.614C147.658 104.465 149.642 102.811 152.122 101.654C154.643 100.455 157.412 99.856 160.43 99.856ZM161.05 107.358C159.603 107.358 158.342 107.627 157.268 108.164C156.193 108.66 155.346 109.404 154.726 110.396C154.106 111.347 153.796 112.483 153.796 113.806C153.796 115.79 154.457 117.381 155.78 118.58C157.144 119.737 158.942 120.316 161.174 120.316C162.62 120.316 163.902 120.047 165.018 119.51C166.175 118.931 167.064 118.146 167.684 117.154C168.304 116.162 168.614 115.046 168.614 113.806C168.614 112.566 168.304 111.471 167.684 110.52C167.105 109.528 166.258 108.763 165.142 108.226C164.026 107.647 162.662 107.358 161.05 107.358Z" fill="white"/>
</svg>
